<svg xmlns="http://www.w3.org/2000/svg" version="1.1" viewBox="0.00 0.00 480.00 480.00">
    <g stroke-width="2.00" fill="none" stroke-linecap="butt">
        <path stroke="#1E2228" vector-effect="non-scaling-stroke" d="
  M 323.2634 196.4527
  A 22.04 22.04 0.0 0 0 301.2619 174.3743
  L 170.4021 174.1459
  A 22.04 22.04 0.0 0 0 148.3236 196.1474
  L 148.1566 291.8273
  A 22.04 22.04 0.0 0 0 170.1581 313.9057
  L 301.0179 314.1341
  A 22.04 22.04 0.0 0 0 323.0964 292.1326
  L 323.2634 196.4527" />
        <path stroke="#1E2228" vector-effect="non-scaling-stroke" d="
  M 201.44 250.06
  C 209.99 250.74 216.01 259.05 221.66 264.57
  Q 222.10 265.00 222.49 264.53
  Q 236.86 247.34 251.29 230.02
  C 257.51 222.56 263.64 217.53 273.05 222.24
  Q 276.01 223.73 279.54 227.85
  Q 292.19 242.61 304.99 257.43
  Q 305.50 258.02 305.50 257.24
  L 305.50 196.00
  A 4.25 4.25 0.0 0 0 301.25 191.75
  L 170.00 191.75
  A 4.25 4.25 0.0 0 0 165.75 196.00
  L 165.75 277.76
  Q 165.75 278.52 166.29 277.99
  Q 177.46 267.11 188.33 256.04
  C 192.15 252.15 196.30 249.65 201.44 250.06" />
        <path stroke="#1E2228" vector-effect="non-scaling-stroke" d="
  M 209.37 217.95
  A 17.44 17.44 0.0 0 0 191.93 200.51
  A 17.44 17.44 0.0 0 0 174.49 217.95
  A 17.44 17.44 0.0 0 0 191.93 235.39
  A 17.44 17.44 0.0 0 0 209.37 217.95" />
    </g>
    <path fill="#30353D" d="
  M 0.00 0.00
  L 480.00 0.00
  L 480.00 480.00
  L 0.00 480.00
  L 0.00 0.00
  Z
  M 323.2634 196.4527
  A 22.04 22.04 0.0 0 0 301.2619 174.3743
  L 170.4021 174.1459
  A 22.04 22.04 0.0 0 0 148.3236 196.1474
  L 148.1566 291.8273
  A 22.04 22.04 0.0 0 0 170.1581 313.9057
  L 301.0179 314.1341
  A 22.04 22.04 0.0 0 0 323.0964 292.1326
  L 323.2634 196.4527
  Z" />
    <path fill="#a2acb8" d="
  M 323.0964 292.1326
  A 22.04 22.04 0.0 0 1 301.0179 314.1341
  L 170.1581 313.9057
  A 22.04 22.04 0.0 0 1 148.1566 291.8273
  L 148.3236 196.1474
  A 22.04 22.04 0.0 0 1 170.4021 174.1459
  L 301.2619 174.3743
  A 22.04 22.04 0.0 0 1 323.2634 196.4527
  L 323.0964 292.1326
  Z
  M 201.44 250.06
  C 209.99 250.74 216.01 259.05 221.66 264.57
  Q 222.10 265.00 222.49 264.53
  Q 236.86 247.34 251.29 230.02
  C 257.51 222.56 263.64 217.53 273.05 222.24
  Q 276.01 223.73 279.54 227.85
  Q 292.19 242.61 304.99 257.43
  Q 305.50 258.02 305.50 257.24
  L 305.50 196.00
  A 4.25 4.25 0.0 0 0 301.25 191.75
  L 170.00 191.75
  A 4.25 4.25 0.0 0 0 165.75 196.00
  L 165.75 277.76
  Q 165.75 278.52 166.29 277.99
  Q 177.46 267.11 188.33 256.04
  C 192.15 252.15 196.30 249.65 201.44 250.06
  Z" />
    <path fill="#30353D" d="
  M 201.44 250.06
  C 196.30 249.65 192.15 252.15 188.33 256.04
  Q 177.46 267.11 166.29 277.99
  Q 165.75 278.52 165.75 277.76
  L 165.75 196.00
  A 4.25 4.25 0.0 0 1 170.00 191.75
  L 301.25 191.75
  A 4.25 4.25 0.0 0 1 305.50 196.00
  L 305.50 257.24
  Q 305.50 258.02 304.99 257.43
  Q 292.19 242.61 279.54 227.85
  Q 276.01 223.73 273.05 222.24
  C 263.64 217.53 257.51 222.56 251.29 230.02
  Q 236.86 247.34 222.49 264.53
  Q 222.10 265.00 221.66 264.57
  C 216.01 259.05 209.99 250.74 201.44 250.06
  Z
  M 209.37 217.95
  A 17.44 17.44 0.0 0 0 191.93 200.51
  A 17.44 17.44 0.0 0 0 174.49 217.95
  A 17.44 17.44 0.0 0 0 191.93 235.39
  A 17.44 17.44 0.0 0 0 209.37 217.95
  Z" />
    <circle fill="#a2acb8" cx="191.93" cy="217.95" r="17.44" />
</svg>
