<svg width="52" height="52" viewBox="0 0 52 52" fill="none" xmlns="http://www.w3.org/2000/svg">
  <g clip-path="url(#clip0_94_11)">
    <g filter="url(#filter0_d_94_11)">
      <path fill-rule="evenodd" clip-rule="evenodd"
        d="M29.1208 7.86035C28.065 7.29581 26.8817 7 25.6792 7C24.4768 7 23.2934 7.29581 22.2377 7.86035L10.7459 14.0048C9.61206 14.6117 8.66583 15.5069 8.00666 16.5964C7.3475 17.6859 6.99977 18.9295 7 20.1963V31.8037C6.99977 33.0705 7.3475 34.3141 8.00666 35.4036C8.66583 36.4931 9.61206 37.3883 10.7459 37.9952L22.2377 44.1397C23.2934 44.7042 24.4768 45 25.6792 45C26.8817 45 28.065 44.7042 29.1208 44.1397L40.6101 37.9952C41.7445 37.3886 42.6912 36.4935 43.3509 35.404C44.0104 34.3145 44.3585 33.0708 44.3585 31.8037V20.194C44.3585 18.9269 44.0104 17.6832 43.3509 16.5936C42.6912 15.5041 41.7445 14.609 40.6101 14.0025L29.1208 7.86035ZM25.6792 18.9482C24.9986 18.9482 24.5433 19.7474 23.6326 21.3505L23.3976 21.7666C23.1389 22.2226 23.0094 22.4482 22.8057 22.5987C22.602 22.7491 22.3527 22.8055 21.8518 22.916L21.3941 23.0194C19.6254 23.412 18.7411 23.6071 18.5301 24.27C18.3193 24.9328 18.9232 25.6263 20.1287 27.0084L20.4403 27.3657C20.783 27.7583 20.9555 27.9534 21.0323 28.1978C21.1089 28.4423 21.0825 28.7032 21.0323 29.2274L20.9842 29.7046C20.8021 31.5498 20.7111 32.4736 21.2623 32.8826C21.8135 33.2916 22.6404 32.9178 24.2964 32.1703L24.723 31.9776C25.1951 31.766 25.43 31.6579 25.6792 31.6579C25.9285 31.6579 26.1633 31.766 26.6355 31.9776L27.0621 32.1703C28.7182 32.9178 29.5474 33.2916 30.0963 32.8826C30.6475 32.4736 30.5564 31.5498 30.3742 29.7046L30.3263 29.2274C30.276 28.7032 30.2496 28.4423 30.3263 28.1978C30.403 27.9557 30.5756 27.7583 30.9183 27.3657L31.2299 27.0084C32.4353 25.6263 33.0393 24.9352 32.8284 24.27C32.6174 23.6047 31.7331 23.412 29.9644 23.0194L29.5091 22.916C29.0058 22.8055 28.7541 22.7515 28.5504 22.5987C28.3467 22.4459 28.2197 22.2226 27.9608 21.7666L27.726 21.3505C26.8153 19.7497 26.3599 18.9482 25.6792 18.9482Z"
        fill="url(#paint0_linear_94_11)" />
    </g>
    <g filter="url(#filter1_d_94_11)">
      <path
        d="M36.0715 24.5557C36.2691 24.3682 36.4089 24.1299 36.4747 23.868C36.5406 23.6062 36.53 23.3314 36.444 23.0753C36.36 22.8183 36.2039 22.5898 35.9937 22.4159C35.7833 22.242 35.5273 22.1298 35.2549 22.0921L30.2827 21.3835C30.1784 21.3686 30.0794 21.3291 29.9942 21.2683C29.909 21.2075 29.84 21.1273 29.7934 21.0346L27.5706 16.6162C27.4498 16.3739 27.2618 16.1699 27.0282 16.0275C26.7946 15.8852 26.5248 15.8102 26.2498 15.8113C25.9749 15.8103 25.7052 15.8853 25.4717 16.0276C25.2381 16.17 25.0502 16.374 24.9295 16.6162L22.7061 21.035C22.6116 21.2234 22.4282 21.3536 22.2164 21.3839L17.2443 22.0925C16.972 22.1302 16.7159 22.2425 16.5056 22.4163C16.2953 22.5902 16.1392 22.8188 16.0551 23.0757C15.9692 23.3318 15.9586 23.6066 16.0245 23.8684C16.0903 24.1303 16.2301 24.3686 16.4277 24.5561L20.0252 27.9954C20.1785 28.1422 20.2489 28.3535 20.2127 28.56L19.364 33.4163C19.3256 33.6227 19.3345 33.8348 19.3901 34.0374C19.4456 34.24 19.5464 34.4279 19.6852 34.5875C20.1235 35.0985 20.8887 35.2541 21.5006 34.9388L25.9472 32.6457C26.0409 32.5988 26.1446 32.5743 26.2498 32.5743C26.355 32.5743 26.4587 32.5988 26.5524 32.6457L30.9994 34.9388C31.2103 35.0491 31.4456 35.1068 31.6845 35.1069C32.1192 35.1069 32.5312 34.9174 32.8144 34.5875C32.9532 34.4279 33.054 34.24 33.1096 34.0374C33.1652 33.8349 33.1741 33.6227 33.1356 33.4163L32.2865 28.56C32.2687 28.458 32.2765 28.3533 32.3092 28.255C32.3418 28.1566 32.3984 28.0675 32.474 27.9954L36.0715 24.5557Z"
        fill="url(#paint1_linear_94_11)" />
    </g>
  </g>
  <defs>
    <filter id="filter0_d_94_11" x="0.48616" y="3.74308" width="50.3862" height="51.0277" filterUnits="userSpaceOnUse"
      color-interpolation-filters="sRGB">
      <feFlood flood-opacity="0" result="BackgroundImageFix" />
      <feColorMatrix in="SourceAlpha" type="matrix" values="0 0 0 0 0 0 0 0 0 0 0 0 0 0 0 0 0 0 127 0"
        result="hardAlpha" />
      <feOffset dy="3.25692" />
      <feGaussianBlur stdDeviation="3.25692" />
      <feComposite in2="hardAlpha" operator="out" />
      <feColorMatrix type="matrix" values="0 0 0 0 0.4 0 0 0 0 0.597333 0 0 0 0 0.980392 0 0 0 0.6 0" />
      <feBlend mode="normal" in2="BackgroundImageFix" result="effect1_dropShadow_94_11" />
      <feBlend mode="normal" in="SourceGraphic" in2="effect1_dropShadow_94_11" result="shape" />
    </filter>
    <filter id="filter1_d_94_11" x="9.78465" y="12.7127" width="32.9299" height="31.6899" filterUnits="userSpaceOnUse"
      color-interpolation-filters="sRGB">
      <feFlood flood-opacity="0" result="BackgroundImageFix" />
      <feColorMatrix in="SourceAlpha" type="matrix" values="0 0 0 0 0 0 0 0 0 0 0 0 0 0 0 0 0 0 127 0"
        result="hardAlpha" />
      <feOffset dy="3.09858" />
      <feGaussianBlur stdDeviation="3.09858" />
      <feComposite in2="hardAlpha" operator="out" />
      <feColorMatrix type="matrix" values="0 0 0 0 0.191667 0 0 0 0 0.0798611 0 0 0 0 0.0319444 0 0 0 0.16 0" />
      <feBlend mode="normal" in2="BackgroundImageFix" result="effect1_dropShadow_94_11" />
      <feBlend mode="normal" in="SourceGraphic" in2="effect1_dropShadow_94_11" result="shape" />
    </filter>
    <linearGradient id="paint0_linear_94_11" x1="11.2028" y1="9.375" x2="42.1197" y2="42.5757"
      gradientUnits="userSpaceOnUse">
      <stop stop-color="#48B6FF" />
      <stop offset="1" stop-color="#3C8CFF" />
    </linearGradient>
    <linearGradient id="paint1_linear_94_11" x1="25.0263" y1="33.0712" x2="28.0186" y2="21.5176"
      gradientUnits="userSpaceOnUse">
      <stop stop-color="#FFCC3D" />
      <stop offset="1" stop-color="#FFEA2D" />
    </linearGradient>
    <clipPath id="clip0_94_11">
      <rect width="52" height="52" fill="white" />
    </clipPath>
  </defs>
</svg>