<svg width="180" height="54" viewBox="0 0 180 54" fill="none" xmlns="http://www.w3.org/2000/svg">
  <g clip-path="url(#clip0_97_147)">
    <path
      d="M173.333 53.3333H6.66667C3 53.3333 0 50.3333 0 46.6667V6.66668C0 3.00001 3 1.33514e-05 6.66667 1.33514e-05H173.333C177 1.33514e-05 180 3.00001 180 6.66668V46.6667C180 50.3333 177 53.3333 173.333 53.3333Z"
      fill="#100F0D" />
    <path
      d="M173.333 1.33514e-05H6.66667C3 1.33514e-05 0 3.00001 0 6.66668V46.6667C0 50.3333 3 53.3333 6.66667 53.3333H173.333C177 53.3333 180 50.3333 180 46.6667V6.66668C180 3.00001 177 1.33514e-05 173.333 1.33514e-05ZM173.333 1.06615C176.421 1.06615 178.933 3.57868 178.933 6.66668V46.6667C178.933 49.7547 176.421 52.2672 173.333 52.2672H6.66667C3.57864 52.2672 1.06719 49.7547 1.06719 46.6667V6.66668C1.06719 3.57868 3.57864 1.06615 6.66667 1.06615H173.333Z"
      fill="#A2A2A1" />
    <path
      d="M61.2603 11.5733C61.173 11.3062 61.0579 11.0668 60.9151 10.8552C60.7749 10.6409 60.6069 10.4584 60.4111 10.3076C60.218 10.1568 59.9985 10.0418 59.7525 9.96241C59.5065 9.88305 59.2367 9.84337 58.9431 9.84337C58.4616 9.84337 58.0238 9.9677 57.6297 10.2163C57.2356 10.465 56.9221 10.8314 56.6893 11.3154C56.4566 11.7995 56.3402 12.3933 56.3402 13.097C56.3402 13.8006 56.4579 14.3944 56.6933 14.8785C56.9287 15.3626 57.2475 15.7289 57.6496 15.9776C58.0516 16.2262 58.504 16.3506 59.0065 16.3506C59.4721 16.3506 59.8821 16.2514 60.2366 16.053C60.5937 15.852 60.8714 15.5689 61.0698 15.2039C61.2708 14.8362 61.3714 14.4037 61.3714 13.9064L61.6729 13.9699H59.2287V13.097H62.3236V13.9699C62.3236 14.6391 62.1808 15.2211 61.8951 15.7157C61.6121 16.2104 61.2206 16.5939 60.7206 16.8664C60.2233 17.1362 59.652 17.2711 59.0065 17.2711C58.287 17.2711 57.6548 17.1018 57.1099 16.7632C56.5677 16.4246 56.1444 15.9432 55.8402 15.3189C55.5387 14.6947 55.3879 13.954 55.3879 13.097C55.3879 12.4542 55.4739 11.8762 55.6458 11.363C55.8204 10.8472 56.0664 10.4081 56.3838 10.0457C56.7012 9.68334 57.0769 9.40559 57.5107 9.21249C57.9445 9.01939 58.422 8.92284 58.9431 8.92284C59.3716 8.92284 59.771 8.98765 60.1413 9.11727C60.5143 9.24424 60.8463 9.42543 61.1373 9.66086C61.4309 9.89363 61.6755 10.1727 61.8713 10.4981C62.067 10.8208 62.2019 11.1792 62.276 11.5733H61.2603ZM64.0089 17.16V9.03394H68.9132V9.90686H64.993V12.6526H68.6592V13.5255H64.993V16.2871H68.9766V17.16H64.0089ZM70.2424 9.90686V9.03394H76.3369V9.90686H73.7816V17.16H72.7976V9.90686H70.2424ZM81.9821 9.03394V17.16H80.9981V9.03394H81.9821ZM83.5107 9.90686V9.03394H89.6052V9.90686H87.05V17.16H86.066V9.90686H83.5107ZM101.123 13.097C101.123 13.954 100.968 14.6947 100.659 15.3189C100.349 15.9432 99.9245 16.4246 99.3849 16.7632C98.8453 17.1018 98.2289 17.2711 97.5359 17.2711C96.8428 17.2711 96.2265 17.1018 95.6869 16.7632C95.1473 16.4246 94.7227 15.9432 94.4132 15.3189C94.1037 14.6947 93.949 13.954 93.949 13.097C93.949 12.2399 94.1037 11.4993 94.4132 10.875C94.7227 10.2507 95.1473 9.76931 95.6869 9.43072C96.2265 9.09214 96.8428 8.92284 97.5359 8.92284C98.2289 8.92284 98.8453 9.09214 99.3849 9.43072C99.9245 9.76931 100.349 10.2507 100.659 10.875C100.968 11.4993 101.123 12.2399 101.123 13.097ZM100.171 13.097C100.171 12.3933 100.053 11.7995 99.8174 11.3154C99.5846 10.8314 99.2685 10.465 98.8691 10.2163C98.4723 9.9677 98.0279 9.84337 97.5359 9.84337C97.0439 9.84337 96.5982 9.9677 96.1987 10.2163C95.802 10.465 95.4859 10.8314 95.2504 11.3154C95.0177 11.7995 94.9013 12.3933 94.9013 13.097C94.9013 13.8006 95.0177 14.3944 95.2504 14.8785C95.4859 15.3626 95.802 15.7289 96.1987 15.9776C96.5982 16.2262 97.0439 16.3506 97.5359 16.3506C98.0279 16.3506 98.4723 16.2262 98.8691 15.9776C99.2685 15.7289 99.5846 15.3626 99.8174 14.8785C100.053 14.3944 100.171 13.8006 100.171 13.097ZM109.221 9.03394V17.16H108.269L103.841 10.7798H103.761V17.16H102.777V9.03394H103.73L108.174 15.43H108.253V9.03394H109.221Z"
      fill="white" />
    <path
      d="M142.581 40H145.069V23.3312H142.581V40ZM164.991 29.336L162.139 36.5625H162.053L159.093 29.336H156.413L160.853 39.436L158.321 45.0547H160.916L167.757 29.336H164.991ZM150.88 38.1068C150.067 38.1068 148.929 37.6989 148.929 36.6912C148.929 35.4047 150.345 34.9115 151.567 34.9115C152.66 34.9115 153.176 35.1469 153.84 35.4688C153.647 37.0131 152.317 38.1068 150.88 38.1068ZM151.181 28.9713C149.38 28.9713 147.515 29.7651 146.743 31.5235L148.951 32.4453C149.423 31.5235 150.301 31.2235 151.224 31.2235C152.511 31.2235 153.819 31.9948 153.84 33.3677V33.5391C153.389 33.2817 152.424 32.8959 151.245 32.8959C148.864 32.8959 146.441 34.2036 146.441 36.6484C146.441 38.8787 148.393 40.3156 150.58 40.3156C152.252 40.3156 153.176 39.5651 153.753 38.6855H153.84V39.9729H156.243V33.5817C156.243 30.6224 154.032 28.9713 151.181 28.9713ZM135.805 31.3651H132.267V25.6516H135.805C137.665 25.6516 138.721 27.1912 138.721 28.5083C138.721 29.8 137.665 31.3651 135.805 31.3651ZM135.741 23.3312H129.78V40H132.267V33.6849H135.741C138.499 33.6849 141.209 31.6891 141.209 28.5083C141.209 25.3281 138.499 23.3312 135.741 23.3312ZM103.233 38.1099C101.514 38.1099 100.075 36.6703 100.075 34.6948C100.075 32.6964 101.514 31.2364 103.233 31.2364C104.93 31.2364 106.261 32.6964 106.261 34.6948C106.261 36.6703 104.93 38.1099 103.233 38.1099ZM106.09 30.2693H106.004C105.445 29.6036 104.371 29.0021 103.018 29.0021C100.182 29.0021 97.5833 31.4943 97.5833 34.6948C97.5833 37.8735 100.182 40.3438 103.018 40.3438C104.371 40.3438 105.445 39.7421 106.004 39.0552H106.09V39.8708C106.09 42.0412 104.93 43.2005 103.061 43.2005C101.536 43.2005 100.591 42.1052 100.204 41.1818L98.0349 42.0839C98.6573 43.587 100.311 45.4349 103.061 45.4349C105.983 45.4349 108.453 43.7162 108.453 39.5271V29.3459H106.09V30.2693ZM110.172 40H112.663V23.3312H110.172V40ZM116.336 34.5011C116.272 32.3099 118.034 31.1932 119.301 31.1932C120.289 31.1932 121.126 31.6875 121.406 32.3959L116.336 34.5011ZM124.069 32.6104C123.596 31.3437 122.157 29.0021 119.215 29.0021C116.293 29.0021 113.866 31.3005 113.866 34.6729C113.866 37.8521 116.272 40.3438 119.493 40.3438C122.092 40.3438 123.596 38.7547 124.22 37.8307L122.286 36.5416C121.642 37.4869 120.761 38.1099 119.493 38.1099C118.227 38.1099 117.324 37.5297 116.745 36.3912L124.327 33.2552L124.069 32.6104ZM63.6584 30.7421V33.1479H69.4151C69.2432 34.5011 68.7921 35.4891 68.1047 36.1765C67.2667 37.014 65.9563 37.938 63.6584 37.938C60.114 37.938 57.3432 35.0812 57.3432 31.5369C57.3432 27.9927 60.114 25.1355 63.6584 25.1355C65.5703 25.1355 66.9661 25.8875 67.9973 26.8541L69.6948 25.1568C68.2552 23.7823 66.3437 22.7297 63.6584 22.7297C58.8031 22.7297 54.7219 26.6823 54.7219 31.5369C54.7219 36.3912 58.8031 40.3438 63.6584 40.3438C66.2787 40.3438 68.2552 39.4844 69.8016 37.8735C71.3912 36.2839 71.8855 34.05 71.8855 32.2453C71.8855 31.6875 71.8421 31.1719 71.7563 30.7421H63.6584ZM78.4303 38.1099C76.7115 38.1099 75.2292 36.6921 75.2292 34.6729C75.2292 32.6323 76.7115 31.2364 78.4303 31.2364C80.1484 31.2364 81.6307 32.6323 81.6307 34.6729C81.6307 36.6921 80.1484 38.1099 78.4303 38.1099ZM78.4303 29.0021C75.2932 29.0021 72.7375 31.3864 72.7375 34.6729C72.7375 37.938 75.2932 40.3438 78.4303 40.3438C81.5661 40.3438 84.1224 37.938 84.1224 34.6729C84.1224 31.3864 81.5661 29.0021 78.4303 29.0021ZM90.8473 38.1099C89.1297 38.1099 87.6469 36.6921 87.6469 34.6729C87.6469 32.6323 89.1297 31.2364 90.8473 31.2364C92.5661 31.2364 94.0479 32.6323 94.0479 34.6729C94.0479 36.6921 92.5661 38.1099 90.8473 38.1099ZM90.8473 29.0021C87.7115 29.0021 85.1557 31.3864 85.1557 34.6729C85.1557 37.938 87.7115 40.3438 90.8473 40.3438C93.9844 40.3438 96.5401 37.938 96.5401 34.6729C96.5401 31.3864 93.9844 29.0021 90.8473 29.0021Z"
      fill="white" />
    <path
      d="M27.6229 25.899L13.4276 40.9656C13.4281 40.9688 13.4292 40.9714 13.4297 40.9745C13.8651 42.6104 15.3593 43.8151 17.1328 43.8151C17.8417 43.8151 18.5073 43.6235 19.0781 43.287L19.1235 43.2604L35.1021 34.0402L27.6229 25.899Z"
      fill="#EB3131" />
    <path
      d="M41.9844 23.3333L41.9708 23.324L35.0724 19.3249L27.3005 26.2407L35.0995 34.0385L41.9615 30.0792C43.1645 29.4297 43.9812 28.1615 43.9812 26.6989C43.9812 25.2469 43.1755 23.9849 41.9844 23.3333Z"
      fill="#F6B60B" />
    <path
      d="M13.4271 12.3697C13.3417 12.6844 13.2969 13.014 13.2969 13.3563V39.9797C13.2969 40.3214 13.3412 40.6521 13.4276 40.9656L28.1115 26.2844L13.4271 12.3697Z"
      fill="#5778C5" />
    <path
      d="M27.7276 26.6678L35.0751 19.3224L19.1145 10.0688C18.5344 9.72136 17.8573 9.52082 17.1328 9.52082C15.3593 9.52082 13.8631 10.7276 13.4276 12.3656C13.4271 12.3672 13.4271 12.3683 13.4271 12.3698L27.7276 26.6678Z"
      fill="#3BAD49" />
  </g>
  <defs>
    <clipPath id="clip0_97_147">
      <rect width="180" height="53.3333" fill="white" />
    </clipPath>
  </defs>
</svg>