<svg width="985" height="375" viewBox="0 0 985 375" fill="none" xmlns="http://www.w3.org/2000/svg">
<path d="M319.664 268.073L319.664 171.713L349.508 147.341V268.063H319.664V268.073Z" fill="#E4002B"/>
<path d="M349.91 53.3213V124.909L332.277 115.424L262.385 233.751L242.042 268.868L221.709 233.741L197.827 195.402L174.502 235.895L154.343 270.727L154.179 270.828L154.005 270.727L133.846 235.895L75.7402 127.733H115.724L154.179 200.757L176.442 158.939L192.666 127.733H202.492L219.12 158.939L242.042 198.614L303.453 99.5274L284.773 89.5855L349.91 53.3213Z" fill="#E4002B"/>
<path d="M388.11 266V119H450.06C459.02 119 466.93 121.03 473.79 125.09C480.79 129.15 486.32 134.75 490.38 141.89C494.58 148.89 496.68 156.94 496.68 166.04C496.68 175.14 494.58 183.33 490.38 190.61C486.32 197.89 480.79 203.7 473.79 208.04C466.93 212.24 459.02 214.34 450.06 214.34H418.98V266H388.11ZM418.56 186.62H446.91C450.27 186.62 453.35 185.78 456.15 184.1C458.95 182.42 461.19 180.04 462.87 176.96C464.55 173.74 465.39 170.24 465.39 166.46C465.39 162.4 464.55 158.97 462.87 156.17C461.19 153.23 458.95 150.92 456.15 149.24C453.35 147.56 450.27 146.72 446.91 146.72H418.56V186.62ZM570.096 268.1C558.896 268.1 548.816 265.65 539.856 260.75C531.036 255.71 524.036 248.85 518.856 240.17C513.816 231.49 511.296 221.62 511.296 210.56C511.296 199.36 513.816 189.42 518.856 180.74C524.036 171.92 531.036 165.06 539.856 160.16C548.816 155.12 558.896 152.6 570.096 152.6C581.576 152.6 591.726 155.12 600.546 160.16C609.506 165.06 616.436 171.92 621.336 180.74C626.376 189.42 628.896 199.36 628.896 210.56C628.896 221.62 626.376 231.49 621.336 240.17C616.436 248.85 609.506 255.71 600.546 260.75C591.726 265.65 581.576 268.1 570.096 268.1ZM570.096 242.69C575.976 242.69 581.086 241.29 585.426 238.49C589.766 235.69 593.196 231.91 595.716 227.15C598.236 222.39 599.496 217.14 599.496 211.4C599.496 211.12 599.496 210.84 599.496 210.56C599.496 210.28 599.496 209.93 599.496 209.51C599.496 203.49 598.236 198.1 595.716 193.34C593.196 188.58 589.766 184.87 585.426 182.21C581.086 179.41 575.976 178.01 570.096 178.01C564.636 178.01 559.666 179.41 555.186 182.21C550.706 185.01 547.136 188.86 544.476 193.76C541.956 198.52 540.696 204.12 540.696 210.56C540.696 216.58 541.956 222.04 544.476 226.94C547.136 231.84 550.706 235.69 555.186 238.49C559.666 241.29 564.636 242.69 570.096 242.69ZM654.057 266V154.91H683.037V266H654.057ZM654.267 138.95V110.6H682.827V138.95H654.267ZM715.316 266V154.91H743.246L743.876 170.03C744.716 168.77 745.696 167.58 746.816 166.46C750.736 162.4 755.496 159.11 761.096 156.59C766.696 153.93 772.576 152.6 778.736 152.6C787.136 152.6 794.206 154.35 799.946 157.85C805.686 161.21 809.956 166.25 812.756 172.97C815.696 179.69 817.166 188.02 817.166 197.96V266H787.766V200.06C787.766 194.88 787.066 190.61 785.666 187.25C784.266 183.75 782.166 181.3 779.366 179.9C776.566 178.5 773.276 177.8 769.496 177.8C769.216 177.8 768.866 177.8 768.446 177.8C764.946 177.8 761.726 178.29 758.786 179.27C755.986 180.25 753.466 181.79 751.226 183.89C748.986 185.85 747.306 188.09 746.186 190.61C745.066 193.13 744.506 195.86 744.506 198.8V266H715.316ZM856.666 230.3V180.95H835.666V154.91H856.666V126.77H886.066V154.91H908.956V180.95H886.066V227.36C886.066 230.16 886.416 232.47 887.116 234.29C887.956 236.11 889.286 237.51 891.106 238.49C892.926 239.33 895.166 239.75 897.826 239.75H898.456C899.436 239.75 900.346 239.75 901.186 239.75H902.026C902.586 239.75 903.146 239.75 903.706 239.75H904.126C904.266 239.75 904.406 239.75 904.546 239.75H904.966C905.106 239.75 905.246 239.75 905.386 239.75H905.806C905.946 239.75 906.086 239.75 906.226 239.75H908.326C908.466 239.75 908.536 239.75 908.536 239.75H908.746H908.956L919.456 266H892.366C885.366 266 879.136 264.46 873.676 261.38C868.216 258.16 864.016 253.82 861.076 248.36C858.276 242.9 856.806 236.88 856.666 230.3Z" fill="#0B51B3"/>
</svg>
